<svg xmlns="http://www.w3.org/2000/svg" id="canvas" viewBox="288.398 423.751 1058.510 190.770"><path d="M 320.02,500.32 C 319.62 499.99, 319.06 499.73, 317.93 499.63 C 316.80 499.54, 316.04 499.42, 314.35 499.85 C 312.67 500.29, 311.53 500.53, 309.51 501.80 C 307.49 503.08, 306.32 503.97, 304.26 506.24 C 302.19 508.51, 301.07 509.96, 299.20 513.16 C 297.33 516.36, 296.31 518.33, 294.90 522.25 C 293.48 526.17, 292.79 528.56, 292.11 532.76 C 291.44 536.95, 291.25 539.36, 291.51 543.22 C 291.77 547.09, 292.12 549.13, 293.41 552.08 C 294.70 555.03, 295.71 556.40, 297.97 557.98 C 300.23 559.57, 301.76 560.07, 304.70 560.02 C 307.64 559.97, 309.39 559.36, 312.66 557.74 C 315.94 556.12, 317.73 554.72, 321.06 551.93 C 324.40 549.14, 326.17 547.24, 329.34 543.77 C 332.51 540.31, 334.16 538.18, 336.92 534.63 C 339.69 531.07, 341.06 529.09, 343.15 525.99 C 345.25 522.90, 346.25 521.41, 347.40 519.15 C 348.55 516.89, 348.79 515.91, 348.90 514.69 C 349.01 513.48, 348.68 513.13, 347.95 513.07 C 347.21 513.01, 346.42 513.26, 345.23 514.39 C 344.04 515.51, 343.18 516.49, 341.98 518.70 C 340.79 520.91, 340.17 522.50, 339.25 525.45 C 338.34 528.40, 337.84 530.29, 337.40 533.47 C 336.97 536.64, 336.80 538.48, 337.07 541.32 C 337.35 544.16, 337.73 545.64, 338.77 547.67 C 339.82 549.70, 340.62 550.58, 342.29 551.46 C 343.96 552.35, 345.13 552.49, 347.13 552.09 C 349.12 551.69, 350.36 551.10, 352.28 549.47 C 354.20 547.84, 355.23 546.55, 356.72 543.93 C 358.20 541.31, 358.89 539.53, 359.72 536.39 C 360.55 533.24, 360.84 531.34, 360.87 528.20 C 360.90 525.05, 360.67 523.29, 359.86 520.66 C 359.05 518.03, 358.27 516.73, 356.81 515.04 C 355.35 513.35, 354.27 512.83, 352.56 512.22 C 350.85 511.62, 349.72 511.66, 348.24 512.02 C 346.77 512.37, 345.93 512.96, 345.19 514.00 C 344.45 515.04, 344.25 515.98, 344.56 517.20 C 344.87 518.43, 345.37 519.27, 346.74 520.13 C 348.12 520.98, 349.23 521.35, 351.43 521.47 C 353.63 521.60, 355.06 521.45, 357.75 520.76 C 360.45 520.07, 361.98 519.38, 364.89 518.02 C 367.81 516.66, 369.44 515.68, 372.34 513.96 C 375.25 512.24, 376.79 511.15, 379.40 509.42 C 382.00 507.69, 383.32 506.73, 385.37 505.30 C 387.42 503.88, 388.33 503.14, 389.66 502.30 C 390.99 501.45, 391.40 501.13, 392.01 501.07 C 392.62 501.00, 392.60 501.19, 392.71 501.98 C 392.83 502.78, 392.67 503.44, 392.60 505.03 C 392.52 506.62, 392.43 507.72, 392.34 509.92 C 392.26 512.12, 392.23 513.52, 392.17 516.04 C 392.12 518.57, 392.12 520.02, 392.06 522.56 C 392.01 525.09, 392.00 526.45, 391.90 528.73 C 391.81 531.01, 391.79 532.17, 391.59 533.95 C 391.40 535.74, 391.29 536.51, 390.94 537.64 C 390.59 538.77, 390.37 539.16, 389.86 539.60 C 389.34 540.05, 389.04 540.05, 388.35 539.88 C 387.66 539.70, 387.23 539.43, 386.40 538.74 C 385.58 538.05, 385.06 537.49, 384.24 536.43 C 383.42 535.36, 382.90 534.66, 382.30 533.41 C 381.71 532.17, 381.42 531.46, 381.27 530.22 C 381.11 528.97, 381.14 528.30, 381.55 527.17 C 381.96 526.05, 382.29 525.51, 383.32 524.59 C 384.35 523.66, 385.08 523.31, 386.70 522.56 C 388.32 521.80, 389.37 521.48, 391.42 520.82 C 393.48 520.15, 394.69 519.86, 396.98 519.23 C 399.27 518.61, 400.58 518.37, 402.89 517.70 C 405.20 517.04, 406.43 516.70, 408.52 515.91 C 410.62 515.12, 411.66 514.67, 413.35 513.73 C 415.05 512.80, 415.84 512.25, 417.00 511.24 C 418.16 510.23, 418.68 509.64, 419.18 508.68 C 419.67 507.73, 419.71 507.03, 419.47 506.45 C 419.22 505.88, 418.66 505.55, 417.95 505.81 C 417.24 506.08, 416.62 506.53, 415.92 507.76 C 415.21 509.00, 414.82 510.01, 414.44 511.98 C 414.07 513.96, 413.93 515.35, 414.04 517.65 C 414.16 519.94, 414.34 521.36, 415.02 523.46 C 415.69 525.55, 416.19 526.69, 417.43 528.12 C 418.67 529.55, 419.49 530.17, 421.20 530.61 C 422.90 531.06, 424.00 531.00, 425.95 530.34 C 427.90 529.69, 429.00 529.00, 430.95 527.33 C 432.91 525.65, 433.96 524.36, 435.72 521.97 C 437.47 519.58, 438.38 517.96, 439.74 515.37 C 441.11 512.78, 441.80 511.11, 442.56 509.02 C 443.32 506.92, 443.42 505.76, 443.56 504.90 C 443.69 504.03, 443.37 503.85, 443.23 504.70 C 443.09 505.54, 442.75 506.51, 442.84 509.13 C 442.93 511.74, 443.24 513.67, 443.68 517.76 C 444.11 521.86, 444.46 524.44, 445.03 529.59 C 445.59 534.74, 445.96 537.72, 446.51 543.50 C 447.06 549.27, 447.42 552.50, 447.77 558.46 C 448.12 564.42, 448.32 567.64, 448.26 573.31 C 448.19 578.98, 448.08 581.89, 447.45 586.81 C 446.81 591.73, 446.35 594.16, 445.08 597.89 C 443.82 601.63, 442.90 603.24, 441.13 605.49 C 439.36 607.75, 438.29 608.47, 436.23 609.18 C 434.16 609.90, 432.96 609.81, 430.78 609.07 C 428.61 608.34, 427.35 607.52, 425.34 605.49 C 423.33 603.47, 422.14 601.99, 420.74 598.94 C 419.33 595.89, 418.60 594.03, 418.30 590.24 C 418.00 586.45, 418.09 584.23, 419.25 579.98 C 420.40 575.74, 421.92 573.10, 424.09 569.00 C 426.27 564.89, 427.90 562.66, 430.12 559.47 C 432.34 556.27, 434.30 554.42, 435.18 553.02 C 436.05 551.61, 435.74 551.32, 434.48 552.43 C 433.22 553.54, 431.22 555.40, 428.86 558.57 C 426.51 561.73, 424.92 564.05, 422.69 568.25 C 420.46 572.45, 418.95 575.15, 417.72 579.57 C 416.50 583.99, 416.34 586.32, 416.58 590.36 C 416.82 594.39, 417.49 596.41, 418.93 599.75 C 420.37 603.08, 421.53 604.80, 423.79 607.04 C 426.04 609.28, 427.59 610.21, 430.19 610.97 C 432.79 611.73, 434.34 611.72, 436.81 610.84 C 439.27 609.96, 440.58 609.07, 442.52 606.58 C 444.45 604.08, 445.25 602.27, 446.49 598.35 C 447.73 594.43, 448.13 591.97, 448.72 586.97 C 449.31 581.96, 449.40 579.04, 449.44 573.32 C 449.49 567.61, 449.28 564.38, 448.95 558.39 C 448.61 552.41, 448.26 549.17, 447.77 543.39 C 447.29 537.60, 446.94 534.60, 446.53 529.45 C 446.13 524.29, 445.96 521.70, 445.73 517.60 C 445.51 513.50, 445.70 511.57, 445.41 508.94 C 445.11 506.31, 444.83 505.37, 444.27 504.45 C 443.71 503.53, 443.38 503.61, 442.59 504.33 C 441.79 505.04, 441.33 506.05, 440.30 508.01 C 439.26 509.97, 438.76 511.65, 437.41 514.12 C 436.07 516.60, 435.20 518.14, 433.57 520.40 C 431.94 522.66, 430.92 523.84, 429.24 525.42 C 427.56 527.01, 426.69 527.65, 425.17 528.33 C 423.65 529.01, 422.88 529.11, 421.65 528.81 C 420.43 528.52, 419.90 528.05, 419.05 526.84 C 418.21 525.63, 417.87 524.63, 417.44 522.77 C 417.01 520.92, 416.90 519.62, 416.90 517.57 C 416.91 515.52, 417.17 514.28, 417.47 512.52 C 417.76 510.76, 418.08 509.92, 418.36 508.76 C 418.63 507.60, 418.79 507.19, 418.83 506.73 C 418.87 506.26, 418.80 506.27, 418.56 506.45 C 418.31 506.63, 418.19 507.00, 417.61 507.63 C 417.03 508.26, 416.72 508.79, 415.66 509.61 C 414.60 510.44, 413.89 510.94, 412.30 511.76 C 410.71 512.57, 409.73 512.98, 407.71 513.69 C 405.69 514.40, 404.50 514.70, 402.22 515.31 C 399.94 515.93, 398.64 516.15, 396.32 516.76 C 393.99 517.37, 392.75 517.65, 390.61 518.37 C 388.47 519.09, 387.37 519.43, 385.61 520.36 C 383.84 521.28, 383.00 521.76, 381.79 522.98 C 380.57 524.19, 380.11 524.95, 379.55 526.43 C 378.99 527.92, 378.91 528.80, 378.99 530.40 C 379.08 532.01, 379.35 532.90, 379.98 534.44 C 380.60 535.97, 381.12 536.83, 382.13 538.09 C 383.14 539.34, 383.83 540.00, 385.03 540.71 C 386.24 541.43, 387.00 541.64, 388.16 541.67 C 389.32 541.70, 389.92 541.51, 390.83 540.84 C 391.73 540.17, 392.11 539.63, 392.70 538.32 C 393.29 537.00, 393.45 536.15, 393.77 534.26 C 394.09 532.37, 394.13 531.19, 394.30 528.87 C 394.46 526.54, 394.49 525.19, 394.61 522.64 C 394.73 520.10, 394.78 518.67, 394.90 516.14 C 395.02 513.61, 395.15 512.24, 395.20 510.00 C 395.24 507.76, 395.32 506.65, 395.11 504.93 C 394.90 503.21, 394.75 502.42, 394.14 501.41 C 393.54 500.40, 393.15 500.03, 392.08 499.88 C 391.01 499.72, 390.38 499.93, 388.78 500.63 C 387.18 501.34, 386.22 502.02, 384.10 503.41 C 381.97 504.79, 380.73 505.83, 378.16 507.57 C 375.58 509.30, 374.08 510.41, 371.23 512.07 C 368.39 513.72, 366.75 514.64, 363.92 515.85 C 361.09 517.07, 359.58 517.54, 357.10 518.15 C 354.61 518.76, 353.37 518.88, 351.50 518.90 C 349.63 518.91, 348.81 518.66, 347.75 518.23 C 346.69 517.79, 346.44 517.35, 346.21 516.72 C 345.97 516.09, 346.10 515.64, 346.59 515.07 C 347.08 514.51, 347.60 514.10, 348.66 513.89 C 349.73 513.68, 350.59 513.54, 351.91 514.03 C 353.23 514.51, 354.10 514.88, 355.26 516.33 C 356.41 517.79, 357.02 518.93, 357.68 521.30 C 358.35 523.67, 358.62 525.28, 358.57 528.17 C 358.53 531.07, 358.28 532.87, 357.46 535.77 C 356.64 538.67, 355.84 540.28, 354.49 542.66 C 353.13 545.04, 352.24 546.18, 350.68 547.68 C 349.11 549.19, 348.18 549.73, 346.66 550.18 C 345.15 550.63, 344.32 550.62, 343.11 549.95 C 341.89 549.28, 341.32 548.58, 340.59 546.82 C 339.86 545.06, 339.61 543.73, 339.46 541.13 C 339.30 538.53, 339.32 536.79, 339.79 533.82 C 340.26 530.85, 340.85 529.05, 341.82 526.30 C 342.78 523.54, 343.60 522.17, 344.63 520.06 C 345.65 517.95, 346.25 517.01, 346.95 515.73 C 347.64 514.46, 347.93 513.95, 348.09 513.68 C 348.25 513.40, 348.24 513.46, 347.74 514.36 C 347.25 515.27, 346.83 516.06, 345.62 518.19 C 344.41 520.33, 343.67 521.93, 341.68 525.02 C 339.69 528.11, 338.37 530.12, 335.67 533.66 C 332.97 537.20, 331.32 539.31, 328.18 542.70 C 325.04 546.09, 323.24 547.94, 319.97 550.60 C 316.70 553.27, 314.89 554.53, 311.82 556.02 C 308.76 557.50, 307.20 557.92, 304.65 558.01 C 302.09 558.10, 300.94 557.81, 299.04 556.47 C 297.14 555.14, 296.30 554.00, 295.15 551.32 C 294.00 548.65, 293.54 546.76, 293.27 543.10 C 293.00 539.44, 293.14 537.08, 293.80 533.03 C 294.46 528.99, 295.15 526.64, 296.58 522.87 C 298.00 519.11, 299.04 517.20, 300.94 514.22 C 302.83 511.23, 304.07 509.99, 306.07 507.95 C 308.06 505.91, 309.12 505.17, 310.92 504.04 C 312.72 502.90, 313.64 502.76, 315.06 502.28 C 316.49 501.81, 317.06 501.86, 318.03 501.66 C 319.01 501.46, 319.55 501.55, 319.94 501.29 C 320.34 501.02, 320.42 500.65, 320.02 500.32" style="stroke: black; fill: black;"/><path d="M 481.14,538.14 C 480.92 538.68, 481.02 539.18, 480.88 540.75 C 480.73 542.32, 480.63 543.35, 480.41 546.00 C 480.19 548.66, 480.20 550.63, 479.77 554.02 C 479.35 557.42, 478.96 559.57, 478.29 562.99 C 477.62 566.42, 477.04 568.36, 476.42 571.14 C 475.80 573.92, 475.50 575.15, 475.19 576.89 C 474.88 578.64, 474.91 579.11, 474.86 579.86 C 474.82 580.61, 474.88 580.47, 474.95 580.65 C 475.02 580.82, 475.04 580.84, 475.21 580.74 C 475.37 580.63, 475.42 580.80, 475.79 580.13 C 476.15 579.46, 476.45 579.07, 477.04 577.38 C 477.63 575.69, 478.04 574.47, 478.73 571.68 C 479.42 568.89, 479.78 566.89, 480.47 563.42 C 481.16 559.96, 481.63 557.81, 482.18 554.37 C 482.73 550.92, 483.09 548.93, 483.23 546.19 C 483.37 543.45, 483.11 542.32, 482.87 540.69 C 482.62 539.06, 482.35 538.55, 482.01 538.04 C 481.66 537.53, 481.37 537.60, 481.14 538.14" style="stroke: black; fill: black;"/><path d="M 528.63,504.03 C 528.35 504.45, 528.22 504.74, 528.05 506.17 C 527.89 507.60, 527.72 508.44, 527.80 511.19 C 527.88 513.94, 528.21 515.78, 528.44 519.92 C 528.67 524.06, 528.78 526.68, 528.95 531.88 C 529.13 537.08, 529.21 540.20, 529.33 545.93 C 529.45 551.65, 529.51 554.90, 529.55 560.51 C 529.59 566.11, 529.61 569.14, 529.54 573.97 C 529.48 578.79, 529.34 581.21, 529.23 584.63 C 529.13 588.04, 529.09 589.53, 529.01 591.05 C 528.94 592.57, 529.03 592.83, 528.86 592.22 C 528.70 591.60, 528.70 590.57, 528.19 587.98 C 527.69 585.40, 527.05 583.47, 526.35 579.31 C 525.65 575.14, 525.13 572.36, 524.69 567.17 C 524.25 561.98, 524.08 558.90, 524.16 553.36 C 524.25 547.83, 524.42 544.86, 525.12 539.49 C 525.82 534.12, 526.35 531.32, 527.67 526.51 C 528.98 521.71, 529.87 519.31, 531.70 515.45 C 533.54 511.60, 534.69 509.85, 536.84 507.25 C 538.98 504.65, 540.25 503.71, 542.43 502.47 C 544.62 501.22, 545.76 500.96, 547.77 501.03 C 549.78 501.10, 550.83 501.61, 552.48 502.83 C 554.13 504.05, 554.94 505.09, 556.02 507.14 C 557.10 509.20, 557.53 510.58, 557.87 513.12 C 558.22 515.66, 558.22 517.23, 557.75 519.84 C 557.28 522.45, 556.74 523.93, 555.51 526.16 C 554.29 528.39, 553.36 529.46, 551.61 531.00 C 549.85 532.55, 548.67 533.18, 546.74 533.88 C 544.81 534.58, 543.68 534.68, 541.94 534.52 C 540.20 534.35, 539.30 533.94, 538.06 533.05 C 536.82 532.16, 536.26 531.47, 535.74 530.08 C 535.22 528.70, 535.11 527.84, 535.47 526.13 C 535.83 524.42, 536.25 523.36, 537.54 521.53 C 538.82 519.69, 539.79 518.66, 541.88 516.96 C 543.97 515.26, 545.33 514.35, 547.99 513.04 C 550.65 511.72, 552.27 511.13, 555.20 510.39 C 558.12 509.66, 559.76 509.45, 562.60 509.37 C 565.44 509.30, 566.92 509.47, 569.38 510.02 C 571.84 510.57, 573.03 511.06, 574.89 512.12 C 576.75 513.18, 577.53 513.95, 578.69 515.33 C 579.84 516.71, 580.20 517.62, 580.67 519.02 C 581.14 520.42, 581.05 521.26, 581.03 522.33 C 581.01 523.41, 580.79 523.97, 580.56 524.41 C 580.34 524.84, 580.16 524.95, 579.92 524.50 C 579.67 524.05, 579.48 523.52, 579.32 522.16 C 579.17 520.79, 579.03 519.67, 579.14 517.67 C 579.24 515.66, 579.32 514.30, 579.83 512.13 C 580.34 509.96, 580.73 508.69, 581.69 506.83 C 582.66 504.98, 583.30 504.13, 584.67 502.86 C 586.04 501.60, 586.87 501.15, 588.54 500.50 C 590.21 499.85, 591.17 499.74, 593.02 499.60 C 594.87 499.47, 595.90 499.61, 597.78 499.83 C 599.66 500.05, 600.69 500.34, 602.40 500.71 C 604.12 501.08, 605.03 501.39, 606.37 501.69 C 607.72 501.98, 608.36 502.17, 609.14 502.19 C 609.91 502.21, 610.20 502.03, 610.25 501.78 C 610.30 501.53, 610.08 501.13, 609.37 500.95 C 608.65 500.76, 607.96 500.57, 606.68 500.84 C 605.39 501.12, 604.45 501.38, 602.94 502.33 C 601.44 503.28, 600.48 503.99, 599.16 505.60 C 597.84 507.20, 597.11 508.28, 596.35 510.36 C 595.58 512.44, 595.28 513.79, 595.34 516.00 C 595.40 518.21, 595.67 519.55, 596.64 521.42 C 597.60 523.29, 598.44 524.23, 600.16 525.35 C 601.87 526.48, 603.08 526.88, 605.20 527.04 C 607.32 527.20, 608.64 526.99, 610.77 526.16 C 612.91 525.33, 614.11 524.55, 615.87 522.89 C 617.62 521.22, 618.50 520.04, 619.56 517.82 C 620.63 515.60, 621.01 514.18, 621.20 511.77 C 621.38 509.36, 621.16 507.94, 620.49 505.76 C 619.81 503.58, 619.11 502.47, 617.83 500.87 C 616.55 499.28, 615.55 498.58, 614.07 497.78 C 612.59 496.97, 611.61 496.82, 610.44 496.85 C 609.27 496.88, 608.60 497.30, 608.22 497.91 C 607.85 498.53, 607.86 499.25, 608.57 499.93 C 609.28 500.62, 610.04 501.11, 611.78 501.32 C 613.52 501.53, 614.79 501.55, 617.27 500.98 C 619.76 500.41, 621.28 499.88, 624.22 498.46 C 627.16 497.03, 628.85 496.09, 631.97 493.87 C 635.10 491.65, 636.84 490.29, 639.85 487.35 C 642.86 484.41, 644.44 482.65, 647.03 479.18 C 649.62 475.71, 650.89 473.70, 652.81 470.00 C 654.74 466.30, 655.55 464.21, 656.65 460.69 C 657.74 457.16, 658.12 455.29, 658.28 452.37 C 658.43 449.45, 658.15 448.03, 657.42 446.09 C 656.69 444.15, 655.99 443.34, 654.62 442.67 C 653.26 442.00, 652.26 441.91, 650.58 442.73 C 648.90 443.56, 647.79 444.30, 646.23 446.81 C 644.66 449.32, 644.02 451.11, 642.77 455.29 C 641.52 459.46, 640.92 462.07, 639.99 467.68 C 639.06 473.29, 638.66 476.65, 638.11 483.35 C 637.55 490.04, 637.39 493.93, 637.22 501.17 C 637.04 508.41, 637.10 512.44, 637.23 519.56 C 637.36 526.68, 637.55 530.47, 637.85 536.77 C 638.16 543.08, 638.38 546.24, 638.75 551.07 C 639.12 555.89, 639.21 558.22, 639.71 560.90 C 640.20 563.58, 640.69 564.06, 641.21 564.48 C 641.73 564.90, 641.95 563.97, 642.29 563.00 C 642.63 562.02, 642.97 560.92, 642.91 559.58 C 642.86 558.24, 642.48 556.92, 642.01 556.29 C 641.55 555.66, 640.92 555.73, 640.58 556.42 C 640.23 557.11, 640.20 558.42, 640.28 559.72 C 640.37 561.03, 640.74 562.03, 641.01 562.94 C 641.27 563.86, 641.53 564.74, 641.61 564.28 C 641.68 563.82, 641.70 563.31, 641.39 560.64 C 641.08 557.98, 640.54 555.74, 640.04 550.95 C 639.54 546.17, 639.27 543.00, 638.91 536.72 C 638.54 530.44, 638.35 526.65, 638.21 519.54 C 638.07 512.44, 638.02 508.41, 638.22 501.19 C 638.42 493.97, 638.60 490.10, 639.22 483.44 C 639.84 476.79, 640.27 473.44, 641.32 467.91 C 642.37 462.39, 643.08 459.81, 644.47 455.84 C 645.86 451.87, 646.88 450.39, 648.28 448.07 C 649.68 445.75, 650.32 445.07, 651.47 444.24 C 652.61 443.40, 653.14 443.40, 654.00 443.88 C 654.85 444.36, 655.30 444.97, 655.73 446.64 C 656.16 448.31, 656.33 449.54, 656.16 452.25 C 656.00 454.96, 655.89 456.78, 654.92 460.18 C 653.96 463.58, 653.19 465.64, 651.35 469.25 C 649.51 472.85, 648.27 474.83, 645.73 478.20 C 643.19 481.57, 641.62 483.29, 638.65 486.11 C 635.68 488.92, 633.95 490.22, 630.87 492.26 C 627.78 494.29, 626.07 495.08, 623.23 496.27 C 620.39 497.46, 618.92 497.72, 616.65 498.22 C 614.39 498.71, 613.36 498.67, 611.89 498.74 C 610.42 498.82, 609.91 498.65, 609.30 498.60 C 608.70 498.56, 608.67 498.50, 608.86 498.52 C 609.05 498.53, 609.43 498.45, 610.26 498.68 C 611.08 498.91, 611.81 498.95, 612.98 499.67 C 614.14 500.39, 615.00 500.93, 616.06 502.28 C 617.12 503.64, 617.73 504.57, 618.29 506.43 C 618.85 508.29, 619.03 509.52, 618.86 511.58 C 618.68 513.65, 618.34 514.87, 617.40 516.78 C 616.47 518.69, 615.70 519.69, 614.19 521.13 C 612.69 522.57, 611.66 523.23, 609.89 523.97 C 608.12 524.71, 607.05 524.90, 605.34 524.82 C 603.63 524.74, 602.68 524.43, 601.33 523.56 C 599.99 522.68, 599.35 521.94, 598.63 520.43 C 597.91 518.91, 597.72 517.81, 597.74 515.97 C 597.75 514.14, 598.02 512.99, 598.71 511.26 C 599.40 509.53, 600.03 508.61, 601.18 507.31 C 602.33 506.01, 603.18 505.52, 604.44 504.76 C 605.70 504.01, 606.45 503.95, 607.48 503.54 C 608.51 503.13, 609.01 503.08, 609.60 502.72 C 610.20 502.36, 610.46 502.15, 610.47 501.73 C 610.48 501.31, 610.33 501.08, 609.64 500.63 C 608.94 500.18, 608.33 499.94, 606.99 499.48 C 605.65 499.03, 604.72 498.75, 602.93 498.34 C 601.14 497.93, 600.07 497.64, 598.04 497.43 C 596.02 497.22, 594.88 497.10, 592.82 497.31 C 590.76 497.52, 589.66 497.70, 587.74 498.48 C 585.82 499.27, 584.84 499.80, 583.20 501.23 C 581.57 502.67, 580.79 503.61, 579.58 505.65 C 578.37 507.69, 577.84 509.05, 577.17 511.43 C 576.49 513.82, 576.25 515.30, 576.19 517.56 C 576.14 519.82, 576.33 521.14, 576.90 522.75 C 577.46 524.35, 578.08 525.06, 579.01 525.59 C 579.94 526.12, 580.74 525.99, 581.55 525.38 C 582.36 524.77, 582.83 523.94, 583.06 522.54 C 583.28 521.13, 583.23 520.07, 582.69 518.36 C 582.14 516.65, 581.66 515.60, 580.31 513.98 C 578.97 512.35, 578.06 511.49, 575.97 510.26 C 573.89 509.03, 572.57 508.45, 569.88 507.83 C 567.20 507.20, 565.59 507.04, 562.54 507.13 C 559.50 507.21, 557.77 507.48, 554.66 508.24 C 551.55 509.01, 549.86 509.60, 546.99 510.95 C 544.11 512.30, 542.58 513.14, 540.28 514.98 C 537.99 516.82, 536.90 518.00, 535.50 520.16 C 534.10 522.31, 533.62 523.61, 533.28 525.74 C 532.95 527.87, 533.12 529.03, 533.84 530.82 C 534.55 532.62, 535.29 533.55, 536.86 534.70 C 538.44 535.86, 539.60 536.36, 541.72 536.61 C 543.84 536.86, 545.19 536.72, 547.47 535.95 C 549.74 535.17, 551.07 534.44, 553.09 532.72 C 555.11 530.99, 556.16 529.80, 557.57 527.31 C 558.98 524.82, 559.60 523.19, 560.15 520.28 C 560.69 517.37, 560.71 515.63, 560.30 512.78 C 559.88 509.93, 559.39 508.36, 558.06 506.03 C 556.73 503.70, 555.71 502.51, 553.66 501.14 C 551.62 499.77, 550.26 499.25, 547.82 499.19 C 545.39 499.12, 543.95 499.41, 541.49 500.81 C 539.03 502.22, 537.75 503.39, 535.53 506.20 C 533.31 509.00, 532.22 510.85, 530.39 514.84 C 528.57 518.84, 527.71 521.28, 526.41 526.17 C 525.11 531.07, 524.59 533.89, 523.87 539.33 C 523.16 544.76, 522.99 547.75, 522.85 553.34 C 522.71 558.93, 522.86 562.03, 523.17 567.28 C 523.47 572.53, 523.83 575.35, 524.38 579.60 C 524.94 583.85, 525.16 585.93, 525.95 588.54 C 526.74 591.16, 527.47 592.13, 528.33 592.68 C 529.20 593.23, 529.72 592.89, 530.25 591.29 C 530.78 589.69, 530.84 588.15, 530.98 584.69 C 531.11 581.23, 530.96 578.81, 530.92 573.97 C 530.89 569.13, 530.87 566.11, 530.81 560.49 C 530.76 554.88, 530.70 551.63, 530.63 545.90 C 530.56 540.18, 530.51 537.06, 530.46 531.85 C 530.41 526.64, 530.39 524.01, 530.39 519.86 C 530.40 515.71, 530.58 513.85, 530.49 511.11 C 530.39 508.36, 530.12 507.55, 529.91 506.14 C 529.70 504.73, 529.69 504.47, 529.43 504.04 C 529.18 503.62, 528.90 503.60, 528.63 504.03" style="stroke: black; fill: black;"/><path d="M 625.49,521.87 C 625.63 522.19, 625.73 522.45, 626.46 522.73 C 627.19 523.01, 627.70 523.24, 629.12 523.29 C 630.54 523.33, 631.48 523.32, 633.55 522.96 C 635.63 522.61, 636.96 522.36, 639.50 521.50 C 642.04 520.64, 643.52 520.03, 646.25 518.68 C 648.98 517.33, 650.49 516.47, 653.15 514.73 C 655.81 512.99, 657.23 511.98, 659.54 509.98 C 661.86 507.97, 663.03 506.80, 664.72 504.69 C 666.41 502.59, 667.15 501.39, 667.99 499.45 C 668.82 497.52, 669.04 496.49, 668.90 495.01 C 668.76 493.53, 668.33 492.77, 667.27 492.06 C 666.21 491.36, 665.25 491.11, 663.59 491.49 C 661.94 491.86, 660.78 492.40, 659.00 493.95 C 657.22 495.50, 656.14 496.76, 654.69 499.25 C 653.24 501.74, 652.56 503.43, 651.76 506.41 C 650.97 509.39, 650.64 511.22, 650.72 514.15 C 650.81 517.07, 651.11 518.72, 652.19 521.04 C 653.27 523.35, 654.17 524.45, 656.13 525.72 C 658.08 526.99, 659.42 527.37, 661.99 527.38 C 664.55 527.39, 666.11 527.00, 668.95 525.77 C 671.79 524.55, 673.33 523.45, 676.17 521.26 C 679.00 519.06, 680.50 517.55, 683.13 514.79 C 685.76 512.02, 687.09 510.28, 689.34 507.43 C 691.59 504.59, 692.72 503.03, 694.37 500.57 C 696.03 498.11, 696.75 496.86, 697.61 495.13 C 698.48 493.39, 698.64 492.65, 698.69 491.88 C 698.74 491.12, 698.38 491.00, 697.86 491.30 C 697.35 491.59, 696.73 492.10, 696.11 493.36 C 695.49 494.61, 695.09 495.64, 694.76 497.56 C 694.43 499.48, 694.41 500.74, 694.46 502.96 C 694.50 505.17, 694.60 506.45, 695.00 508.63 C 695.40 510.82, 695.74 511.99, 696.45 513.91 C 697.17 515.82, 697.70 516.72, 698.58 518.19 C 699.46 519.67, 700.03 520.31, 700.87 521.28 C 701.72 522.25, 702.17 522.65, 702.79 523.06 C 703.42 523.47, 703.73 523.45, 703.98 523.34 C 704.23 523.23, 704.28 522.93, 704.05 522.52 C 703.81 522.11, 703.53 521.76, 702.80 521.29 C 702.07 520.81, 701.44 520.57, 700.40 520.14 C 699.36 519.71, 698.63 519.52, 697.60 519.12 C 696.58 518.73, 696.02 518.46, 695.29 518.17 C 694.56 517.87, 694.17 517.81, 693.95 517.64 C 693.73 517.47, 693.71 517.53, 694.20 517.30 C 694.68 517.08, 695.18 517.01, 696.38 516.51 C 697.59 516.01, 698.42 515.66, 700.21 514.80 C 702.00 513.95, 703.14 513.39, 705.33 512.23 C 707.53 511.07, 708.83 510.40, 711.20 508.99 C 713.56 507.59, 714.87 506.76, 717.15 505.21 C 719.44 503.66, 720.63 502.82, 722.61 501.25 C 724.60 499.69, 725.56 498.87, 727.07 497.38 C 728.58 495.89, 729.25 495.10, 730.15 493.79 C 731.05 492.48, 731.35 491.84, 731.56 490.83 C 731.78 489.82, 731.64 489.32, 731.23 488.73 C 730.83 488.13, 730.32 487.89, 729.53 487.84 C 728.73 487.80, 728.10 487.94, 727.27 488.52 C 726.43 489.10, 725.93 489.65, 725.33 490.75 C 724.74 491.86, 724.45 492.59, 724.27 494.02 C 724.10 495.45, 724.12 496.30, 724.45 497.90 C 724.77 499.51, 725.09 500.40, 725.92 502.04 C 726.75 503.68, 727.40 504.53, 728.59 506.11 C 729.78 507.70, 730.59 508.51, 731.87 509.96 C 733.15 511.42, 733.92 512.11, 734.99 513.40 C 736.06 514.68, 736.60 515.28, 737.21 516.39 C 737.83 517.50, 738.04 518.00, 738.05 518.94 C 738.07 519.87, 737.91 520.28, 737.30 521.05 C 736.70 521.82, 736.15 522.18, 735.04 522.79 C 733.93 523.41, 733.11 523.71, 731.77 524.12 C 730.42 524.53, 729.53 524.71, 728.31 524.85 C 727.08 524.99, 726.42 524.97, 725.65 524.82 C 724.89 524.67, 724.58 524.57, 724.48 524.08 C 724.39 523.59, 724.52 523.26, 725.17 522.37 C 725.83 521.47, 726.38 520.83, 727.74 519.59 C 729.10 518.36, 730.02 517.61, 731.97 516.19 C 733.92 514.77, 735.17 513.94, 737.50 512.49 C 739.83 511.05, 741.20 510.27, 743.62 508.98 C 746.04 507.69, 747.37 507.07, 749.60 506.04 C 751.83 505.02, 752.97 504.55, 754.77 503.87 C 756.57 503.18, 757.38 502.93, 758.59 502.62 C 759.79 502.32, 760.24 502.17, 760.78 502.35 C 761.33 502.52, 761.31 502.67, 761.31 503.49 C 761.30 504.31, 761.05 504.93, 760.76 506.45 C 760.48 507.96, 760.18 509.05, 759.88 511.05 C 759.58 513.06, 759.33 514.39, 759.26 516.49 C 759.19 518.58, 759.14 519.82, 759.53 521.53 C 759.92 523.24, 760.26 524.11, 761.22 525.02 C 762.19 525.93, 762.92 526.17, 764.36 526.08 C 765.79 525.99, 766.72 525.61, 768.41 524.57 C 770.10 523.53, 771.05 522.65, 772.81 520.90 C 774.56 519.16, 775.48 517.95, 777.20 515.85 C 778.92 513.74, 779.85 512.46, 781.40 510.39 C 782.95 508.33, 783.75 507.17, 784.95 505.51 C 786.16 503.85, 786.70 503.08, 787.44 502.10 C 788.18 501.11, 788.41 500.84, 788.65 500.59 C 788.90 500.34, 788.77 500.42, 788.68 500.85 C 788.58 501.27, 788.35 501.71, 788.17 502.72 C 788.00 503.73, 787.89 504.48, 787.79 505.89 C 787.69 507.30, 787.64 508.22, 787.65 509.78 C 787.66 511.33, 787.65 512.23, 787.84 513.66 C 788.02 515.09, 788.12 515.85, 788.57 516.92 C 789.02 517.99, 789.34 518.51, 790.10 519.01 C 790.87 519.51, 791.42 519.64, 792.38 519.41 C 793.34 519.18, 793.96 518.85, 794.90 517.89 C 795.85 516.92, 796.37 516.15, 797.12 514.56 C 797.86 512.98, 798.22 511.88, 798.64 509.95 C 799.06 508.02, 799.22 506.84, 799.22 504.92 C 799.21 503.01, 799.10 501.98, 798.62 500.38 C 798.15 498.77, 797.73 497.99, 796.84 496.90 C 795.95 495.81, 795.29 495.36, 794.18 494.92 C 793.08 494.49, 792.34 494.49, 791.32 494.72 C 790.29 494.95, 789.64 495.31, 789.05 496.07 C 788.45 496.83, 788.20 497.53, 788.35 498.50 C 788.50 499.47, 788.86 500.15, 789.81 500.92 C 790.76 501.69, 791.50 502.06, 793.10 502.36 C 794.70 502.66, 795.75 502.66, 797.82 502.43 C 799.89 502.20, 801.18 501.88, 803.46 501.22 C 805.73 500.56, 806.99 500.01, 809.18 499.13 C 811.37 498.25, 812.54 497.62, 814.40 496.82 C 816.25 496.03, 817.17 495.59, 818.44 495.17 C 819.71 494.75, 820.15 494.52, 820.76 494.72 C 821.36 494.93, 821.39 495.17, 821.46 496.19 C 821.54 497.20, 821.35 498.04, 821.13 499.80 C 820.91 501.55, 820.65 502.81, 820.38 504.96 C 820.12 507.11, 819.87 508.52, 819.78 510.55 C 819.69 512.57, 819.60 513.72, 819.93 515.11 C 820.25 516.49, 820.56 517.10, 821.40 517.47 C 822.25 517.83, 822.90 517.70, 824.16 516.93 C 825.41 516.15, 826.18 515.29, 827.66 513.60 C 829.14 511.90, 829.98 510.57, 831.55 508.45 C 833.12 506.33, 834.04 504.92, 835.49 503.01 C 836.95 501.10, 837.72 500.10, 838.81 498.89 C 839.91 497.67, 840.36 497.22, 840.97 496.95 C 841.58 496.68, 841.66 496.81, 841.87 497.53 C 842.08 498.25, 841.94 499.04, 842.01 500.56 C 842.08 502.07, 842.02 503.19, 842.21 505.11 C 842.39 507.04, 842.47 508.28, 842.93 510.16 C 843.39 512.04, 843.62 513.12, 844.50 514.52 C 845.38 515.92, 845.96 516.59, 847.32 517.15 C 848.68 517.72, 849.56 517.77, 851.30 517.35 C 853.04 516.92, 854.07 516.35, 856.03 515.03 C 857.99 513.70, 859.11 512.66, 861.10 510.72 C 863.09 508.78, 864.20 507.44, 865.98 505.32 C 867.76 503.20, 868.68 501.95, 870.00 500.10 C 871.32 498.26, 871.93 497.38, 872.57 496.09 C 873.22 494.81, 873.35 494.30, 873.21 493.68 C 873.08 493.07, 872.67 492.89, 871.88 493.02 C 871.09 493.14, 870.39 493.41, 869.27 494.31 C 868.15 495.21, 867.46 495.96, 866.28 497.53 C 865.10 499.11, 864.41 500.18, 863.36 502.21 C 862.31 504.23, 861.70 505.52, 861.04 507.68 C 860.37 509.83, 860.09 511.10, 860.03 512.99 C 859.96 514.88, 860.10 515.85, 860.71 517.13 C 861.33 518.40, 861.91 518.97, 863.12 519.37 C 864.34 519.77, 865.24 519.73, 866.79 519.13 C 868.33 518.53, 869.29 517.89, 870.84 516.36 C 872.38 514.83, 873.25 513.65, 874.52 511.47 C 875.80 509.29, 876.42 507.81, 877.21 505.46 C 878.00 503.10, 878.30 501.75, 878.47 499.70 C 878.64 497.66, 878.53 496.58, 878.05 495.23 C 877.57 493.87, 877.02 493.34, 876.06 492.92 C 875.11 492.50, 874.33 492.58, 873.27 493.14 C 872.21 493.71, 871.51 494.37, 870.78 495.72 C 870.04 497.07, 869.74 498.10, 869.61 499.90 C 869.48 501.69, 869.58 502.84, 870.12 504.70 C 870.67 506.56, 871.13 507.66, 872.34 509.19 C 873.56 510.73, 874.43 511.52, 876.19 512.38 C 877.95 513.24, 879.06 513.54, 881.14 513.51 C 883.22 513.48, 884.39 513.30, 886.60 512.23 C 888.81 511.17, 890.05 510.36, 892.21 508.18 C 894.37 506.00, 895.43 504.50, 897.42 501.34 C 899.41 498.19, 900.39 496.27, 902.16 492.40 C 903.92 488.54, 904.81 486.22, 906.23 482.02 C 907.65 477.83, 908.28 475.42, 909.26 471.43 C 910.24 467.44, 910.65 465.37, 911.11 462.05 C 911.57 458.74, 911.70 457.17, 911.56 454.86 C 911.41 452.55, 911.13 451.60, 910.38 450.50 C 909.64 449.40, 909.00 449.11, 907.83 449.37 C 906.66 449.63, 905.80 450.09, 904.55 451.79 C 903.29 453.50, 902.62 454.79, 901.55 457.89 C 900.49 460.99, 900.04 463.06, 899.22 467.29 C 898.40 471.51, 897.95 474.17, 897.44 479.01 C 896.93 483.85, 896.69 486.67, 896.69 491.49 C 896.68 496.30, 896.79 498.91, 897.40 503.07 C 898.00 507.22, 898.44 509.30, 899.71 512.26 C 900.98 515.22, 901.85 516.48, 903.76 517.89 C 905.67 519.30, 906.93 519.66, 909.28 519.31 C 911.63 518.95, 913.07 518.23, 915.53 516.12 C 917.99 514.01, 919.24 512.32, 921.58 508.75 C 923.92 505.18, 925.14 502.82, 927.23 498.27 C 929.32 493.71, 930.37 490.88, 932.04 485.97 C 933.71 481.07, 934.46 478.29, 935.56 473.72 C 936.67 469.16, 937.09 466.81, 937.56 463.14 C 938.04 459.48, 938.15 457.79, 937.93 455.40 C 937.72 453.01, 937.35 452.15, 936.50 451.19 C 935.64 450.24, 934.91 450.09, 933.63 450.63 C 932.36 451.17, 931.41 451.80, 930.11 453.90 C 928.81 456.00, 928.19 457.63, 927.12 461.12 C 926.04 464.61, 925.51 466.91, 924.73 471.36 C 923.95 475.82, 923.55 478.58, 923.21 483.40 C 922.87 488.23, 922.81 490.97, 923.03 495.50 C 923.24 500.02, 923.47 502.37, 924.29 506.03 C 925.10 509.69, 925.62 511.41, 927.08 513.79 C 928.54 516.16, 929.58 517.04, 931.57 517.90 C 933.56 518.77, 934.81 518.77, 937.04 518.13 C 939.27 517.48, 940.60 516.61, 942.72 514.67 C 944.85 512.72, 945.90 511.13, 947.65 508.40 C 949.40 505.68, 950.26 503.86, 951.45 501.03 C 952.65 498.20, 953.16 496.43, 953.61 494.25 C 954.06 492.07, 953.92 490.99, 953.69 490.12 C 953.46 489.25, 952.99 489.25, 952.46 489.91 C 951.94 490.56, 951.40 491.51, 951.04 493.38 C 950.69 495.25, 950.47 496.86, 950.69 499.26 C 950.90 501.66, 951.27 503.24, 952.11 505.37 C 952.94 507.49, 953.50 508.61, 954.86 509.91 C 956.22 511.20, 957.12 511.67, 958.90 511.85 C 960.68 512.03, 961.79 511.80, 963.77 510.80 C 965.74 509.81, 966.87 508.83, 968.77 506.88 C 970.67 504.93, 971.67 503.44, 973.26 501.07 C 974.84 498.70, 975.65 497.18, 976.69 495.03 C 977.73 492.89, 978.06 491.57, 978.44 490.34 C 978.83 489.10, 978.64 488.61, 978.61 488.85 C 978.57 489.09, 978.29 489.68, 978.26 491.53 C 978.23 493.39, 978.22 494.86, 978.46 498.15 C 978.70 501.43, 979.03 503.57, 979.45 507.96 C 979.88 512.34, 980.16 514.98, 980.59 520.08 C 981.01 525.18, 981.29 528.04, 981.56 533.45 C 981.83 538.86, 981.99 541.81, 981.92 547.13 C 981.85 552.45, 981.76 555.31, 981.20 560.05 C 980.65 564.80, 980.24 567.16, 979.13 570.86 C 978.03 574.55, 977.24 576.16, 975.68 578.54 C 974.13 580.91, 973.20 581.79, 971.36 582.75 C 969.53 583.70, 968.46 583.73, 966.53 583.32 C 964.60 582.91, 963.49 582.25, 961.72 580.69 C 959.94 579.13, 958.95 577.99, 957.66 575.52 C 956.38 573.05, 955.71 571.47, 955.29 568.35 C 954.87 565.22, 954.84 563.41, 955.54 559.91 C 956.24 556.41, 956.93 554.51, 958.78 550.85 C 960.64 547.18, 961.94 545.24, 964.81 541.59 C 967.68 537.93, 969.52 536.04, 973.14 532.57 C 976.77 529.09, 978.93 527.35, 982.92 524.22 C 986.91 521.08, 989.13 519.61, 993.11 516.89 C 997.09 514.17, 999.40 512.81, 1002.83 510.61 C 1006.25 508.41, 1007.92 507.51, 1010.23 505.89 C 1012.55 504.26, 1013.65 503.28, 1014.40 502.48 C 1015.15 501.68, 1015.01 501.48, 1013.99 501.88 C 1012.97 502.27, 1011.70 502.98, 1009.29 504.46 C 1006.89 505.94, 1005.35 507.02, 1001.95 509.27 C 998.56 511.53, 996.28 512.95, 992.31 515.73 C 988.33 518.50, 986.11 519.99, 982.09 523.15 C 978.06 526.32, 975.87 528.06, 972.18 531.56 C 968.50 535.06, 966.61 536.95, 963.64 540.66 C 960.67 544.37, 959.31 546.32, 957.33 550.10 C 955.35 553.87, 954.57 555.84, 953.75 559.54 C 952.93 563.24, 952.87 565.19, 953.24 568.60 C 953.60 572.01, 954.19 573.82, 955.59 576.59 C 957.00 579.35, 958.14 580.70, 960.26 582.42 C 962.38 584.15, 963.80 584.82, 966.18 585.20 C 968.57 585.57, 969.97 585.44, 972.17 584.31 C 974.38 583.18, 975.53 582.14, 977.22 579.54 C 978.91 576.93, 979.55 575.15, 980.62 571.28 C 981.69 567.42, 982.04 565.03, 982.56 560.20 C 983.08 555.38, 983.15 552.51, 983.21 547.15 C 983.28 541.79, 983.11 538.82, 982.88 533.39 C 982.65 527.95, 982.37 525.09, 982.05 519.98 C 981.73 514.86, 981.50 512.22, 981.27 507.82 C 981.05 503.42, 981.10 501.29, 980.93 497.99 C 980.75 494.69, 980.77 493.24, 980.38 491.33 C 979.99 489.42, 979.67 488.81, 978.99 488.45 C 978.32 488.09, 977.92 488.45, 977.00 489.52 C 976.09 490.59, 975.62 491.80, 974.41 493.79 C 973.20 495.79, 972.48 497.27, 970.95 499.51 C 969.43 501.76, 968.45 503.17, 966.79 505.03 C 965.13 506.89, 964.20 507.82, 962.65 508.83 C 961.10 509.83, 960.31 510.11, 959.03 510.06 C 957.76 510.00, 957.17 509.67, 956.29 508.57 C 955.40 507.48, 955.06 506.49, 954.60 504.57 C 954.15 502.66, 954.19 501.19, 954.03 498.99 C 953.87 496.79, 953.93 495.33, 953.81 493.56 C 953.70 491.79, 953.68 490.84, 953.45 490.12 C 953.22 489.41, 953.11 489.29, 952.68 489.99 C 952.26 490.69, 952.04 491.61, 951.33 493.62 C 950.63 495.64, 950.30 497.36, 949.16 500.05 C 948.01 502.75, 947.23 504.53, 945.60 507.10 C 943.97 509.66, 942.85 511.04, 941.01 512.88 C 939.18 514.72, 938.18 515.61, 936.42 516.32 C 934.67 517.02, 933.77 517.13, 932.23 516.43 C 930.68 515.73, 929.96 514.97, 928.70 512.81 C 927.45 510.66, 926.77 509.13, 925.95 505.65 C 925.12 502.17, 924.81 499.85, 924.57 495.42 C 924.34 490.99, 924.39 488.26, 924.77 483.52 C 925.15 478.77, 925.57 476.04, 926.47 471.70 C 927.37 467.36, 928.10 465.14, 929.26 461.82 C 930.41 458.50, 931.21 457.10, 932.22 455.09 C 933.23 453.07, 933.63 452.40, 934.32 451.75 C 935.00 451.09, 935.27 451.06, 935.63 451.81 C 935.99 452.57, 936.07 453.28, 936.12 455.51 C 936.16 457.73, 936.27 459.36, 935.87 462.94 C 935.47 466.52, 935.17 468.87, 934.14 473.39 C 933.10 477.90, 932.35 480.67, 930.69 485.51 C 929.03 490.36, 927.96 493.17, 925.84 497.61 C 923.72 502.06, 922.43 504.36, 920.09 507.75 C 917.75 511.13, 916.37 512.57, 914.15 514.54 C 911.93 516.51, 910.85 517.20, 908.97 517.61 C 907.09 518.02, 906.26 517.81, 904.75 516.60 C 903.23 515.38, 902.56 514.30, 901.40 511.54 C 900.25 508.79, 899.62 506.84, 898.97 502.83 C 898.33 498.82, 898.18 496.22, 898.19 491.49 C 898.20 486.76, 898.44 483.95, 899.02 479.19 C 899.59 474.42, 900.08 471.77, 901.05 467.68 C 902.02 463.59, 902.79 461.65, 903.87 458.71 C 904.95 455.78, 905.58 454.65, 906.45 453.00 C 907.33 451.35, 907.67 450.84, 908.24 450.46 C 908.80 450.07, 909.00 450.18, 909.27 451.07 C 909.55 451.96, 909.63 452.77, 909.62 454.92 C 909.60 457.07, 909.60 458.58, 909.20 461.80 C 908.81 465.03, 908.52 467.10, 907.62 471.04 C 906.71 474.98, 906.08 477.37, 904.67 481.49 C 903.26 485.62, 902.36 487.91, 900.57 491.66 C 898.79 495.42, 897.75 497.29, 895.74 500.25 C 893.74 503.22, 892.57 504.51, 890.54 506.50 C 888.51 508.48, 887.46 509.20, 885.58 510.17 C 883.69 511.13, 882.78 511.28, 881.10 511.33 C 879.42 511.37, 878.56 511.11, 877.19 510.39 C 875.81 509.68, 875.15 509.03, 874.23 507.76 C 873.30 506.49, 872.96 505.56, 872.57 504.02 C 872.18 502.49, 872.17 501.53, 872.26 500.08 C 872.36 498.64, 872.64 497.88, 873.05 496.79 C 873.46 495.69, 873.82 495.16, 874.32 494.62 C 874.81 494.08, 875.13 493.87, 875.53 494.08 C 875.93 494.28, 876.20 494.59, 876.32 495.66 C 876.45 496.73, 876.48 497.62, 876.16 499.41 C 875.84 501.19, 875.53 502.44, 874.72 504.57 C 873.91 506.70, 873.27 508.07, 872.11 510.06 C 870.94 512.05, 870.14 513.09, 868.89 514.51 C 867.63 515.94, 866.90 516.50, 865.83 517.18 C 864.76 517.85, 864.24 518.03, 863.54 517.89 C 862.83 517.75, 862.57 517.44, 862.32 516.50 C 862.08 515.56, 862.06 514.78, 862.30 513.19 C 862.54 511.59, 862.81 510.44, 863.52 508.51 C 864.23 506.58, 864.79 505.37, 865.83 503.53 C 866.86 501.70, 867.63 500.79, 868.70 499.32 C 869.77 497.84, 870.40 497.20, 871.17 496.15 C 871.94 495.11, 872.27 494.62, 872.54 494.09 C 872.81 493.57, 872.82 493.34, 872.51 493.53 C 872.20 493.72, 871.87 494.02, 870.99 495.04 C 870.10 496.06, 869.49 496.92, 868.08 498.63 C 866.67 500.33, 865.73 501.54, 863.94 503.56 C 862.15 505.58, 861.03 506.85, 859.14 508.72 C 857.25 510.59, 856.18 511.57, 854.48 512.90 C 852.79 514.22, 851.97 514.80, 850.67 515.34 C 849.36 515.88, 848.84 515.94, 847.98 515.58 C 847.11 515.22, 846.84 514.73, 846.35 513.54 C 845.85 512.36, 845.77 511.40, 845.52 509.66 C 845.28 507.92, 845.33 506.72, 845.14 504.82 C 844.94 502.93, 844.95 501.79, 844.55 500.18 C 844.15 498.56, 843.92 497.65, 843.15 496.75 C 842.38 495.86, 841.85 495.59, 840.70 495.70 C 839.54 495.81, 838.83 496.20, 837.38 497.32 C 835.92 498.44, 835.06 499.44, 833.41 501.30 C 831.76 503.16, 830.73 504.52, 829.12 506.62 C 827.51 508.71, 826.61 510.02, 825.36 511.79 C 824.11 513.56, 823.57 514.49, 822.86 515.46 C 822.14 516.43, 821.96 516.75, 821.76 516.65 C 821.56 516.55, 821.69 516.14, 821.84 514.97 C 821.99 513.81, 822.20 512.74, 822.50 510.81 C 822.80 508.88, 823.07 507.50, 823.33 505.32 C 823.60 503.15, 823.84 501.86, 823.83 499.94 C 823.81 498.03, 823.76 497.03, 823.26 495.74 C 822.75 494.44, 822.35 493.96, 821.29 493.46 C 820.24 492.96, 819.56 493.01, 818.00 493.22 C 816.44 493.44, 815.46 493.86, 813.51 494.56 C 811.56 495.25, 810.40 495.88, 808.23 496.69 C 806.07 497.50, 804.85 498.00, 802.71 498.60 C 800.56 499.20, 799.34 499.45, 797.49 499.70 C 795.64 499.95, 794.76 499.95, 793.46 499.83 C 792.17 499.72, 791.70 499.46, 791.03 499.13 C 790.36 498.79, 790.21 498.52, 790.09 498.15 C 789.98 497.79, 790.14 497.61, 790.46 497.30 C 790.79 497.00, 791.13 496.77, 791.73 496.65 C 792.33 496.53, 792.76 496.41, 793.46 496.70 C 794.16 497.00, 794.63 497.29, 795.23 498.13 C 795.83 498.98, 796.16 499.59, 796.45 500.94 C 796.75 502.28, 796.79 503.18, 796.68 504.86 C 796.58 506.53, 796.37 507.61, 795.94 509.32 C 795.51 511.03, 795.12 512.01, 794.54 513.41 C 793.95 514.82, 793.55 515.46, 793.00 516.35 C 792.44 517.24, 792.17 517.55, 791.78 517.86 C 791.38 518.16, 791.26 518.18, 791.02 517.87 C 790.78 517.56, 790.71 517.20, 790.57 516.31 C 790.43 515.43, 790.35 514.75, 790.32 513.46 C 790.29 512.17, 790.33 511.33, 790.42 509.85 C 790.51 508.37, 790.72 507.49, 790.78 506.06 C 790.84 504.64, 790.90 503.85, 790.71 502.72 C 790.53 501.59, 790.34 501.03, 789.87 500.41 C 789.40 499.80, 789.10 499.56, 788.34 499.64 C 787.59 499.72, 787.14 499.92, 786.09 500.81 C 785.04 501.69, 784.46 502.47, 783.12 504.07 C 781.77 505.67, 780.96 506.81, 779.36 508.82 C 777.76 510.82, 776.81 512.08, 775.10 514.11 C 773.40 516.13, 772.45 517.26, 770.82 518.94 C 769.20 520.63, 768.33 521.45, 766.98 522.53 C 765.63 523.61, 765.00 524.07, 764.08 524.36 C 763.16 524.64, 762.82 524.60, 762.36 523.97 C 761.90 523.34, 761.83 522.66, 761.76 521.21 C 761.69 519.75, 761.81 518.62, 762.02 516.67 C 762.22 514.73, 762.52 513.46, 762.79 511.47 C 763.06 509.48, 763.32 508.38, 763.36 506.72 C 763.40 505.05, 763.41 504.26, 763.00 503.14 C 762.59 502.02, 762.26 501.59, 761.31 501.12 C 760.37 500.65, 759.73 500.65, 758.28 500.78 C 756.83 500.92, 755.98 501.19, 754.05 501.80 C 752.12 502.42, 750.95 502.88, 748.63 503.86 C 746.31 504.85, 744.95 505.46, 742.45 506.73 C 739.95 507.99, 738.53 508.76, 736.11 510.21 C 733.69 511.65, 732.39 512.46, 730.34 513.95 C 728.29 515.44, 727.28 516.19, 725.86 517.67 C 724.45 519.15, 723.83 519.98, 723.27 521.34 C 722.71 522.71, 722.70 523.44, 723.04 524.49 C 723.38 525.53, 723.89 526.01, 724.96 526.57 C 726.04 527.14, 726.90 527.31, 728.42 527.32 C 729.94 527.34, 730.96 527.15, 732.55 526.66 C 734.13 526.16, 735.06 525.76, 736.34 524.86 C 737.63 523.96, 738.27 523.37, 738.98 522.18 C 739.70 521.00, 739.89 520.28, 739.92 518.94 C 739.94 517.60, 739.70 516.87, 739.09 515.47 C 738.48 514.07, 737.91 513.37, 736.85 511.94 C 735.79 510.51, 735.03 509.79, 733.79 508.31 C 732.55 506.84, 731.77 506.05, 730.64 504.56 C 729.52 503.08, 728.92 502.32, 728.16 500.89 C 727.40 499.45, 727.14 498.70, 726.86 497.40 C 726.58 496.09, 726.59 495.44, 726.76 494.36 C 726.92 493.28, 727.25 492.81, 727.67 492.02 C 728.10 491.22, 728.46 490.89, 728.88 490.37 C 729.30 489.85, 729.50 489.63, 729.78 489.42 C 730.06 489.20, 730.24 489.11, 730.29 489.28 C 730.34 489.46, 730.40 489.65, 730.04 490.31 C 729.69 490.97, 729.43 491.48, 728.52 492.57 C 727.62 493.66, 726.99 494.40, 725.52 495.76 C 724.05 497.12, 723.11 497.90, 721.16 499.37 C 719.21 500.84, 718.02 501.65, 715.76 503.12 C 713.50 504.58, 712.21 505.38, 709.87 506.71 C 707.53 508.05, 706.24 508.67, 704.06 509.77 C 701.88 510.88, 700.73 511.34, 698.96 512.24 C 697.18 513.13, 696.36 513.46, 695.17 514.25 C 693.98 515.03, 693.50 515.37, 693.00 516.16 C 692.51 516.94, 692.51 517.41, 692.72 518.19 C 692.92 518.96, 693.29 519.35, 694.02 520.04 C 694.75 520.73, 695.33 521.03, 696.36 521.65 C 697.38 522.26, 698.06 522.65, 699.14 523.12 C 700.22 523.58, 700.87 523.83, 701.77 523.98 C 702.67 524.13, 703.12 524.05, 703.65 523.87 C 704.19 523.68, 704.37 523.46, 704.44 523.06 C 704.52 522.66, 704.41 522.48, 704.03 521.86 C 703.65 521.23, 703.23 520.91, 702.52 519.96 C 701.82 519.00, 701.28 518.44, 700.52 517.07 C 699.75 515.70, 699.29 514.88, 698.68 513.11 C 698.08 511.34, 697.79 510.25, 697.50 508.22 C 697.20 506.20, 697.14 505.00, 697.21 502.97 C 697.28 500.94, 697.59 499.84, 697.85 498.06 C 698.11 496.28, 698.38 495.38, 698.53 494.09 C 698.68 492.80, 698.74 492.15, 698.59 491.63 C 698.45 491.10, 698.34 490.96, 697.80 491.46 C 697.25 491.96, 696.92 492.54, 695.87 494.11 C 694.81 495.69, 694.14 496.91, 692.52 499.33 C 690.91 501.75, 689.95 503.41, 687.79 506.23 C 685.63 509.05, 684.31 510.77, 681.73 513.45 C 679.15 516.12, 677.65 517.56, 674.91 519.60 C 672.17 521.64, 670.62 522.52, 668.03 523.65 C 665.44 524.78, 664.12 525.17, 661.95 525.26 C 659.78 525.35, 658.74 525.11, 657.18 524.10 C 655.61 523.08, 654.94 522.18, 654.14 520.19 C 653.33 518.19, 653.14 516.74, 653.15 514.12 C 653.16 511.50, 653.40 509.78, 654.19 507.09 C 654.97 504.39, 655.75 502.89, 657.08 500.65 C 658.40 498.41, 659.38 497.33, 660.81 495.89 C 662.24 494.45, 663.08 493.97, 664.23 493.45 C 665.37 492.92, 665.92 492.95, 666.53 493.27 C 667.14 493.59, 667.36 493.99, 667.28 495.05 C 667.19 496.10, 666.97 496.92, 666.10 498.55 C 665.23 500.19, 664.53 501.28, 662.92 503.22 C 661.31 505.16, 660.24 506.33, 658.04 508.25 C 655.84 510.17, 654.48 511.18, 651.91 512.81 C 649.34 514.45, 647.84 515.22, 645.18 516.43 C 642.53 517.65, 641.08 518.12, 638.65 518.87 C 636.23 519.61, 634.98 519.80, 633.06 520.15 C 631.13 520.50, 630.29 520.47, 629.02 520.61 C 627.75 520.76, 627.36 520.78, 626.70 520.88 C 626.04 520.99, 625.97 520.92, 625.73 521.12 C 625.49 521.32, 625.34 521.55, 625.49 521.87" style="stroke: black; fill: black;"/><path d="M 1030.70,509.89 C 1030.50 510.31, 1030.63 510.65, 1030.54 511.84 C 1030.44 513.02, 1030.45 513.78, 1030.22 515.81 C 1029.99 517.84, 1029.91 519.15, 1029.38 521.98 C 1028.85 524.80, 1028.43 526.72, 1027.57 529.92 C 1026.72 533.12, 1026.03 535.03, 1025.10 537.99 C 1024.18 540.94, 1023.57 542.53, 1022.95 544.69 C 1022.33 546.86, 1022.22 547.66, 1022.00 548.82 C 1021.77 549.98, 1021.79 550.13, 1021.84 550.50 C 1021.90 550.86, 1021.99 550.89, 1022.26 550.64 C 1022.53 550.39, 1022.64 550.29, 1023.20 549.25 C 1023.76 548.20, 1024.23 547.52, 1025.06 545.41 C 1025.90 543.30, 1026.41 541.68, 1027.37 538.71 C 1028.33 535.74, 1028.92 533.81, 1029.87 530.57 C 1030.82 527.33, 1031.52 525.43, 1032.13 522.52 C 1032.74 519.61, 1032.84 518.17, 1032.91 516.00 C 1032.99 513.84, 1032.77 512.95, 1032.50 511.70 C 1032.23 510.44, 1031.91 510.08, 1031.55 509.72 C 1031.19 509.36, 1030.91 509.46, 1030.70 509.89" style="stroke: black; fill: black;"/><path d="M 1101.82,459.83 C 1102.19 459.47, 1102.42 458.92, 1102.70 457.92 C 1102.98 456.92, 1103.17 456.20, 1103.21 454.83 C 1103.26 453.47, 1103.23 452.50, 1102.94 451.08 C 1102.65 449.66, 1102.43 448.88, 1101.76 447.74 C 1101.09 446.60, 1100.62 445.96, 1099.58 445.39 C 1098.53 444.82, 1097.86 444.55, 1096.54 444.87 C 1095.23 445.20, 1094.39 445.48, 1093.01 447.01 C 1091.63 448.54, 1090.86 449.57, 1089.64 452.54 C 1088.42 455.50, 1087.94 457.45, 1086.93 461.84 C 1085.92 466.23, 1085.39 468.91, 1084.58 474.50 C 1083.77 480.10, 1083.43 483.40, 1082.87 489.81 C 1082.32 496.23, 1082.11 499.91, 1081.80 506.55 C 1081.48 513.19, 1081.40 516.76, 1081.29 523.02 C 1081.17 529.27, 1081.19 532.53, 1081.24 537.82 C 1081.28 543.12, 1081.33 545.69, 1081.51 549.49 C 1081.69 553.28, 1081.82 554.64, 1082.14 556.78 C 1082.46 558.93, 1082.78 559.40, 1083.11 560.21 C 1083.44 561.02, 1083.60 560.74, 1083.77 560.85 C 1083.95 560.95, 1083.95 560.90, 1083.98 560.74 C 1084.01 560.57, 1083.98 560.85, 1083.94 560.02 C 1083.90 559.19, 1083.97 558.72, 1083.79 556.59 C 1083.60 554.46, 1083.30 553.15, 1083.03 549.40 C 1082.77 545.64, 1082.59 543.07, 1082.46 537.80 C 1082.33 532.53, 1082.30 529.28, 1082.38 523.04 C 1082.46 516.80, 1082.54 513.23, 1082.87 506.61 C 1083.20 499.98, 1083.41 496.30, 1084.02 489.92 C 1084.63 483.54, 1085.00 480.24, 1085.92 474.71 C 1086.84 469.18, 1087.42 466.51, 1088.60 462.27 C 1089.79 458.02, 1090.60 456.23, 1091.83 453.48 C 1093.07 450.72, 1093.72 449.86, 1094.77 448.48 C 1095.82 447.10, 1096.30 446.90, 1097.07 446.58 C 1097.84 446.26, 1098.09 446.46, 1098.61 446.90 C 1099.14 447.33, 1099.38 447.81, 1099.70 448.73 C 1100.03 449.66, 1100.10 450.31, 1100.25 451.53 C 1100.39 452.75, 1100.38 453.60, 1100.43 454.83 C 1100.47 456.07, 1100.41 456.72, 1100.49 457.70 C 1100.57 458.67, 1100.57 459.26, 1100.83 459.69 C 1101.10 460.11, 1101.45 460.18, 1101.82 459.83" style="stroke: black; fill: black;"/><path d="M 1069.95,507.68 C 1070.32 508.04, 1070.74 508.29, 1071.95 508.57 C 1073.16 508.84, 1073.96 509.07, 1075.97 509.07 C 1077.98 509.06, 1079.35 509.11, 1082.01 508.53 C 1084.66 507.94, 1086.25 507.49, 1089.24 506.12 C 1092.24 504.76, 1093.87 503.85, 1096.98 501.69 C 1100.10 499.52, 1101.78 498.21, 1104.81 495.30 C 1107.84 492.39, 1109.38 490.67, 1112.13 487.13 C 1114.87 483.59, 1116.26 481.49, 1118.54 477.59 C 1120.82 473.69, 1121.93 471.47, 1123.54 467.62 C 1125.14 463.77, 1125.80 461.69, 1126.57 458.34 C 1127.34 454.99, 1127.53 453.29, 1127.39 450.88 C 1127.24 448.46, 1126.80 447.40, 1125.83 446.27 C 1124.86 445.14, 1124.01 444.83, 1122.54 445.23 C 1121.07 445.63, 1119.98 446.23, 1118.47 448.26 C 1116.96 450.30, 1116.22 451.89, 1114.98 455.39 C 1113.74 458.89, 1113.15 461.21, 1112.28 465.77 C 1111.41 470.33, 1110.98 473.18, 1110.62 478.18 C 1110.26 483.19, 1110.20 486.05, 1110.47 490.78 C 1110.74 495.52, 1111.03 497.99, 1111.97 501.86 C 1112.90 505.74, 1113.51 507.60, 1115.14 510.16 C 1116.77 512.72, 1117.90 513.63, 1120.11 514.68 C 1122.32 515.73, 1123.67 515.79, 1126.18 515.40 C 1128.70 515.00, 1130.16 514.35, 1132.71 512.70 C 1135.25 511.04, 1136.59 509.62, 1138.91 507.11 C 1141.23 504.60, 1142.39 502.88, 1144.30 500.13 C 1146.21 497.39, 1147.21 495.81, 1148.47 493.39 C 1149.72 490.97, 1150.20 489.72, 1150.59 488.03 C 1150.99 486.34, 1150.88 485.67, 1150.43 484.95 C 1149.99 484.22, 1149.39 484.12, 1148.36 484.41 C 1147.33 484.70, 1146.51 485.15, 1145.29 486.40 C 1144.07 487.65, 1143.32 488.67, 1142.25 490.68 C 1141.18 492.69, 1140.62 494.08, 1139.93 496.46 C 1139.25 498.83, 1138.94 500.30, 1138.81 502.57 C 1138.69 504.84, 1138.77 506.11, 1139.31 507.82 C 1139.84 509.54, 1140.35 510.33, 1141.47 511.14 C 1142.59 511.96, 1143.41 512.18, 1144.91 511.90 C 1146.40 511.62, 1147.37 511.13, 1148.94 509.76 C 1150.52 508.38, 1151.41 507.26, 1152.78 505.02 C 1154.15 502.78, 1154.83 501.22, 1155.79 498.54 C 1156.75 495.86, 1157.19 494.20, 1157.58 491.61 C 1157.97 489.03, 1157.97 487.53, 1157.75 485.63 C 1157.54 483.72, 1157.20 482.92, 1156.50 482.09 C 1155.80 481.26, 1155.19 481.19, 1154.27 481.47 C 1153.35 481.76, 1152.61 482.28, 1151.90 483.53 C 1151.20 484.78, 1150.88 485.85, 1150.74 487.71 C 1150.59 489.57, 1150.71 490.82, 1151.18 492.82 C 1151.65 494.82, 1152.04 495.98, 1153.09 497.72 C 1154.15 499.46, 1154.89 500.38, 1156.44 501.52 C 1157.99 502.67, 1158.97 503.18, 1160.86 503.44 C 1162.74 503.71, 1163.88 503.58, 1165.85 502.86 C 1167.83 502.14, 1168.90 501.41, 1170.75 499.84 C 1172.60 498.26, 1173.55 497.09, 1175.10 494.99 C 1176.66 492.89, 1177.47 491.46, 1178.51 489.33 C 1179.55 487.21, 1179.98 485.85, 1180.32 484.37 C 1180.66 482.89, 1180.47 482.19, 1180.21 481.93 C 1179.95 481.67, 1179.53 481.93, 1179.04 483.07 C 1178.54 484.20, 1178.11 485.36, 1177.74 487.60 C 1177.37 489.85, 1177.19 491.57, 1177.19 494.30 C 1177.18 497.03, 1177.31 498.74, 1177.71 501.25 C 1178.12 503.76, 1178.38 505.07, 1179.21 506.86 C 1180.05 508.66, 1180.61 509.45, 1181.89 510.20 C 1183.17 510.96, 1184.06 511.05, 1185.61 510.64 C 1187.17 510.24, 1188.09 509.59, 1189.66 508.20 C 1191.22 506.80, 1192.09 505.64, 1193.44 503.67 C 1194.78 501.71, 1195.50 500.24, 1196.39 498.36 C 1197.28 496.49, 1197.52 495.33, 1197.87 494.29 C 1198.22 493.25, 1198.11 492.96, 1198.15 493.16 C 1198.18 493.37, 1197.95 493.97, 1198.05 495.31 C 1198.16 496.65, 1198.13 497.96, 1198.67 499.88 C 1199.20 501.79, 1199.70 503.11, 1200.72 504.89 C 1201.74 506.67, 1202.40 507.60, 1203.76 508.77 C 1205.12 509.94, 1205.95 510.44, 1207.53 510.71 C 1209.10 510.99, 1210.09 510.90, 1211.64 510.14 C 1213.19 509.38, 1214.03 508.67, 1215.29 506.91 C 1216.54 505.16, 1217.17 503.87, 1217.92 501.38 C 1218.66 498.88, 1218.94 497.23, 1219.02 494.43 C 1219.10 491.63, 1218.90 489.92, 1218.34 487.37 C 1217.77 484.82, 1217.19 483.50, 1216.19 481.67 C 1215.18 479.85, 1214.41 479.12, 1213.31 478.23 C 1212.21 477.34, 1211.45 477.19, 1210.70 477.23 C 1209.95 477.27, 1209.52 477.82, 1209.57 478.42 C 1209.63 479.02, 1209.92 479.71, 1210.98 480.23 C 1212.04 480.75, 1212.98 481.08, 1214.88 481.03 C 1216.78 480.98, 1218.06 480.86, 1220.50 479.97 C 1222.93 479.08, 1224.40 478.37, 1227.06 476.57 C 1229.73 474.77, 1231.20 473.60, 1233.83 470.97 C 1236.47 468.34, 1237.87 466.72, 1240.23 463.43 C 1242.59 460.14, 1243.79 458.15, 1245.63 454.52 C 1247.47 450.89, 1248.30 448.80, 1249.43 445.28 C 1250.57 441.76, 1251.04 439.85, 1251.30 436.91 C 1251.56 433.96, 1251.38 432.48, 1250.75 430.54 C 1250.12 428.60, 1249.46 427.82, 1248.14 427.20 C 1246.81 426.58, 1245.81 426.55, 1244.10 427.44 C 1242.40 428.34, 1241.27 429.19, 1239.62 431.68 C 1237.98 434.16, 1237.23 436.01, 1235.88 439.88 C 1234.53 443.74, 1233.86 446.16, 1232.87 451.00 C 1231.88 455.83, 1231.40 458.75, 1230.93 464.05 C 1230.46 469.36, 1230.31 472.39, 1230.49 477.53 C 1230.67 482.67, 1230.93 485.40, 1231.83 489.76 C 1232.72 494.13, 1233.35 496.20, 1234.96 499.36 C 1236.57 502.52, 1237.63 503.85, 1239.90 505.57 C 1242.16 507.28, 1243.61 507.73, 1246.28 507.93 C 1248.95 508.13, 1250.54 507.79, 1253.25 506.56 C 1255.95 505.33, 1257.42 504.13, 1259.80 501.79 C 1262.18 499.44, 1263.38 497.77, 1265.16 494.84 C 1266.95 491.91, 1267.78 490.08, 1268.71 487.14 C 1269.64 484.19, 1269.88 482.52, 1269.81 480.13 C 1269.74 477.73, 1269.35 476.59, 1268.38 475.15 C 1267.40 473.72, 1266.53 473.17, 1264.93 472.94 C 1263.33 472.71, 1262.13 472.94, 1260.38 474.01 C 1258.62 475.08, 1257.55 476.12, 1256.15 478.29 C 1254.75 480.46, 1254.06 481.99, 1253.37 484.84 C 1252.68 487.69, 1252.45 489.54, 1252.69 492.52 C 1252.93 495.50, 1253.34 497.24, 1254.57 499.73 C 1255.80 502.23, 1256.74 503.50, 1258.84 505.00 C 1260.94 506.51, 1262.34 507.06, 1265.07 507.26 C 1267.80 507.47, 1269.46 507.17, 1272.48 506.02 C 1275.50 504.87, 1277.15 503.78, 1280.16 501.50 C 1283.18 499.22, 1284.79 497.59, 1287.56 494.61 C 1290.34 491.62, 1291.73 489.71, 1294.04 486.57 C 1296.34 483.42, 1297.46 481.61, 1299.10 478.88 C 1300.75 476.14, 1301.43 474.77, 1302.24 472.88 C 1303.06 470.99, 1303.15 470.20, 1303.17 469.41 C 1303.19 468.62, 1302.81 468.54, 1302.36 468.91 C 1301.91 469.28, 1301.34 469.88, 1300.91 471.26 C 1300.49 472.64, 1300.25 473.74, 1300.22 475.82 C 1300.19 477.89, 1300.38 479.21, 1300.76 481.63 C 1301.13 484.04, 1301.44 485.43, 1302.09 487.88 C 1302.75 490.33, 1303.23 491.62, 1304.03 493.88 C 1304.83 496.14, 1305.36 497.26, 1306.09 499.18 C 1306.83 501.09, 1307.23 501.99, 1307.69 503.47 C 1308.15 504.94, 1308.33 505.59, 1308.38 506.56 C 1308.43 507.53, 1308.34 507.83, 1307.95 508.31 C 1307.55 508.78, 1307.21 508.87, 1306.41 508.91 C 1305.60 508.95, 1304.99 508.82, 1303.93 508.50 C 1302.86 508.19, 1302.12 507.90, 1301.06 507.33 C 1300.00 506.76, 1299.45 506.43, 1298.63 505.66 C 1297.81 504.89, 1297.49 503.84, 1296.97 503.49 C 1296.44 503.15, 1296.03 503.23, 1296.01 503.95 C 1296.00 504.67, 1296.14 505.96, 1296.88 507.09 C 1297.63 508.23, 1298.45 508.83, 1299.74 509.62 C 1301.03 510.40, 1301.93 510.76, 1303.34 511.02 C 1304.75 511.28, 1305.62 511.25, 1306.80 510.91 C 1307.97 510.57, 1308.52 510.17, 1309.19 509.30 C 1309.87 508.44, 1310.06 507.88, 1310.17 506.60 C 1310.28 505.33, 1310.12 504.56, 1309.74 502.92 C 1309.36 501.27, 1308.94 500.35, 1308.26 498.39 C 1307.58 496.42, 1307.07 495.32, 1306.34 493.10 C 1305.61 490.87, 1305.16 489.61, 1304.60 487.24 C 1304.03 484.88, 1303.77 483.54, 1303.51 481.25 C 1303.25 478.97, 1303.34 477.75, 1303.31 475.82 C 1303.28 473.89, 1303.41 472.95, 1303.37 471.61 C 1303.33 470.27, 1303.33 469.62, 1303.11 469.11 C 1302.89 468.59, 1302.79 468.46, 1302.26 469.04 C 1301.73 469.62, 1301.43 470.24, 1300.45 471.99 C 1299.46 473.75, 1298.90 475.12, 1297.32 477.82 C 1295.74 480.52, 1294.76 482.38, 1292.55 485.49 C 1290.33 488.60, 1288.94 490.47, 1286.23 493.36 C 1283.52 496.25, 1281.90 497.80, 1278.99 499.93 C 1276.09 502.06, 1274.47 502.96, 1271.71 504.00 C 1268.96 505.04, 1267.54 505.28, 1265.21 505.15 C 1262.87 505.02, 1261.76 504.62, 1260.05 503.35 C 1258.33 502.07, 1257.61 500.97, 1256.64 498.77 C 1255.66 496.57, 1255.32 495.01, 1255.19 492.35 C 1255.05 489.69, 1255.31 488.01, 1255.95 485.48 C 1256.59 482.94, 1257.24 481.60, 1258.38 479.67 C 1259.52 477.74, 1260.36 476.86, 1261.64 475.83 C 1262.92 474.81, 1263.70 474.51, 1264.77 474.54 C 1265.84 474.58, 1266.41 474.89, 1267.00 476.00 C 1267.59 477.12, 1267.82 478.03, 1267.73 480.12 C 1267.64 482.20, 1267.42 483.72, 1266.53 486.44 C 1265.65 489.16, 1264.96 490.96, 1263.31 493.72 C 1261.66 496.47, 1260.46 498.06, 1258.26 500.22 C 1256.06 502.39, 1254.67 503.38, 1252.29 504.54 C 1249.92 505.70, 1248.65 506.12, 1246.39 506.04 C 1244.13 505.95, 1242.99 505.59, 1241.00 504.10 C 1239.01 502.61, 1237.98 501.52, 1236.43 498.60 C 1234.89 495.67, 1234.17 493.69, 1233.26 489.46 C 1232.34 485.24, 1232.05 482.54, 1231.86 477.48 C 1231.67 472.42, 1231.81 469.41, 1232.32 464.18 C 1232.82 458.95, 1233.32 456.05, 1234.40 451.33 C 1235.47 446.60, 1236.23 444.21, 1237.70 440.56 C 1239.16 436.90, 1240.24 435.36, 1241.72 433.04 C 1243.20 430.72, 1243.91 429.92, 1245.08 428.98 C 1246.25 428.04, 1246.79 427.95, 1247.58 428.35 C 1248.38 428.75, 1248.74 429.32, 1249.05 430.99 C 1249.37 432.66, 1249.44 433.95, 1249.16 436.70 C 1248.88 439.45, 1248.68 441.33, 1247.67 444.73 C 1246.65 448.14, 1245.84 450.20, 1244.06 453.73 C 1242.28 457.25, 1241.10 459.21, 1238.77 462.37 C 1236.45 465.53, 1235.04 467.09, 1232.44 469.53 C 1229.84 471.97, 1228.34 472.99, 1225.77 474.56 C 1223.20 476.13, 1221.80 476.64, 1219.59 477.38 C 1217.38 478.11, 1216.32 478.09, 1214.72 478.25 C 1213.11 478.40, 1212.46 478.17, 1211.56 478.14 C 1210.67 478.11, 1210.45 478.06, 1210.23 478.10 C 1210.00 478.13, 1210.09 478.02, 1210.44 478.32 C 1210.80 478.62, 1211.26 478.72, 1212.01 479.59 C 1212.77 480.47, 1213.44 481.03, 1214.21 482.68 C 1214.99 484.34, 1215.46 485.54, 1215.88 487.87 C 1216.31 490.20, 1216.45 491.78, 1216.35 494.34 C 1216.24 496.89, 1215.97 498.40, 1215.35 500.64 C 1214.74 502.89, 1214.21 504.03, 1213.27 505.58 C 1212.34 507.12, 1211.76 507.71, 1210.68 508.37 C 1209.60 509.03, 1208.96 509.11, 1207.88 508.88 C 1206.80 508.65, 1206.22 508.25, 1205.28 507.20 C 1204.35 506.15, 1203.93 505.27, 1203.21 503.62 C 1202.49 501.98, 1202.27 500.74, 1201.67 498.96 C 1201.07 497.17, 1200.83 495.99, 1200.21 494.71 C 1199.58 493.43, 1199.27 492.81, 1198.52 492.54 C 1197.77 492.27, 1197.35 492.45, 1196.44 493.35 C 1195.52 494.25, 1195.04 495.29, 1193.95 497.03 C 1192.87 498.77, 1192.23 500.18, 1191.01 502.05 C 1189.80 503.93, 1189.06 505.03, 1187.86 506.40 C 1186.66 507.78, 1186.05 508.44, 1185.02 508.94 C 1183.99 509.44, 1183.50 509.48, 1182.72 508.91 C 1181.95 508.34, 1181.62 507.71, 1181.14 506.11 C 1180.67 504.52, 1180.49 503.30, 1180.33 500.94 C 1180.16 498.59, 1180.24 496.96, 1180.33 494.35 C 1180.41 491.75, 1180.67 490.12, 1180.76 487.91 C 1180.84 485.71, 1180.92 484.54, 1180.77 483.32 C 1180.61 482.09, 1180.44 481.72, 1179.98 481.78 C 1179.51 481.84, 1179.21 482.35, 1178.44 483.61 C 1177.68 484.88, 1177.25 486.14, 1176.15 488.10 C 1175.06 490.06, 1174.36 491.45, 1172.95 493.42 C 1171.53 495.39, 1170.67 496.49, 1169.08 497.96 C 1167.50 499.42, 1166.62 500.08, 1165.03 500.77 C 1163.44 501.45, 1162.59 501.57, 1161.14 501.37 C 1159.69 501.18, 1158.97 500.75, 1157.79 499.78 C 1156.60 498.81, 1156.01 498.02, 1155.21 496.52 C 1154.42 495.01, 1154.14 493.99, 1153.82 492.26 C 1153.50 490.53, 1153.56 489.44, 1153.60 487.86 C 1153.64 486.29, 1153.78 485.46, 1154.02 484.39 C 1154.26 483.32, 1154.52 482.84, 1154.80 482.51 C 1155.08 482.17, 1155.26 482.07, 1155.42 482.71 C 1155.58 483.36, 1155.67 484.02, 1155.59 485.71 C 1155.52 487.40, 1155.52 488.79, 1155.04 491.17 C 1154.57 493.55, 1154.15 495.11, 1153.22 497.60 C 1152.28 500.08, 1151.58 501.52, 1150.38 503.59 C 1149.18 505.67, 1148.41 506.67, 1147.22 507.99 C 1146.03 509.30, 1145.40 509.79, 1144.44 510.18 C 1143.48 510.56, 1143.05 510.49, 1142.43 509.93 C 1141.80 509.36, 1141.53 508.77, 1141.31 507.34 C 1141.08 505.92, 1141.05 504.81, 1141.30 502.79 C 1141.56 500.78, 1141.86 499.42, 1142.58 497.28 C 1143.30 495.13, 1143.93 493.90, 1144.88 492.06 C 1145.83 490.21, 1146.49 489.34, 1147.33 488.05 C 1148.17 486.77, 1148.59 486.20, 1149.06 485.64 C 1149.53 485.07, 1149.71 484.87, 1149.66 485.24 C 1149.62 485.60, 1149.51 486.04, 1148.86 487.44 C 1148.20 488.85, 1147.64 489.97, 1146.37 492.26 C 1145.09 494.54, 1144.29 496.20, 1142.47 498.87 C 1140.65 501.53, 1139.48 503.21, 1137.27 505.59 C 1135.06 507.97, 1133.70 509.18, 1131.41 510.76 C 1129.12 512.33, 1127.93 512.99, 1125.82 513.46 C 1123.71 513.94, 1122.67 513.99, 1120.84 513.13 C 1119.02 512.27, 1118.18 511.50, 1116.72 509.16 C 1115.25 506.83, 1114.48 505.17, 1113.53 501.47 C 1112.58 497.78, 1112.24 495.33, 1111.96 490.70 C 1111.68 486.06, 1111.73 483.22, 1112.13 478.30 C 1112.53 473.38, 1112.99 470.55, 1113.96 466.11 C 1114.94 461.68, 1115.72 459.45, 1117.01 456.14 C 1118.30 452.84, 1119.21 451.52, 1120.41 449.60 C 1121.62 447.67, 1122.17 447.04, 1123.04 446.52 C 1123.92 446.01, 1124.31 446.13, 1124.79 447.01 C 1125.28 447.90, 1125.47 448.75, 1125.46 450.93 C 1125.45 453.12, 1125.43 454.72, 1124.74 457.94 C 1124.05 461.15, 1123.53 463.23, 1122.02 467.01 C 1120.52 470.78, 1119.43 472.98, 1117.20 476.81 C 1114.97 480.64, 1113.59 482.71, 1110.88 486.16 C 1108.17 489.61, 1106.64 491.28, 1103.64 494.07 C 1100.65 496.86, 1098.97 498.11, 1095.91 500.10 C 1092.85 502.09, 1091.24 502.87, 1088.34 504.02 C 1085.45 505.16, 1083.94 505.35, 1081.45 505.82 C 1078.95 506.29, 1077.73 506.24, 1075.87 506.39 C 1074.00 506.54, 1073.27 506.48, 1072.12 506.56 C 1070.96 506.65, 1070.52 506.57, 1070.09 506.79 C 1069.66 507.02, 1069.57 507.33, 1069.95 507.68" style="stroke: black; fill: black;"/><path d="M 1330.18,474.60 C 1329.84 474.27, 1329.37 474.04, 1328.45 473.95 C 1327.54 473.85, 1326.86 473.78, 1325.62 474.11 C 1324.38 474.44, 1323.43 474.71, 1322.24 475.58 C 1321.05 476.45, 1320.36 477.13, 1319.67 478.47 C 1318.98 479.80, 1318.70 480.67, 1318.80 482.27 C 1318.90 483.87, 1319.19 484.74, 1320.18 486.46 C 1321.17 488.19, 1322.02 489.13, 1323.75 490.88 C 1325.49 492.63, 1326.73 493.55, 1328.84 495.20 C 1330.96 496.85, 1332.30 497.65, 1334.34 499.13 C 1336.37 500.60, 1337.50 501.32, 1339.00 502.57 C 1340.50 503.82, 1341.22 504.35, 1341.84 505.37 C 1342.46 506.39, 1342.52 506.80, 1342.10 507.65 C 1341.69 508.50, 1341.11 508.87, 1339.77 509.63 C 1338.43 510.38, 1337.33 510.77, 1335.42 511.41 C 1333.50 512.05, 1332.22 512.38, 1330.18 512.83 C 1328.15 513.28, 1326.90 513.39, 1325.24 513.65 C 1323.59 513.91, 1322.88 513.95, 1321.91 514.12 C 1320.93 514.28, 1320.74 514.31, 1320.36 514.48 C 1319.99 514.66, 1320.01 514.83, 1320.03 515.00 C 1320.05 515.16, 1320.36 515.40, 1320.45 515.33 C 1320.55 515.25, 1320.61 514.73, 1320.53 514.64 C 1320.44 514.55, 1320.06 514.70, 1320.02 514.87 C 1319.97 515.05, 1319.92 515.29, 1320.31 515.51 C 1320.70 515.72, 1320.93 515.83, 1321.96 515.94 C 1323.00 516.05, 1323.73 516.13, 1325.48 516.04 C 1327.24 515.96, 1328.55 515.94, 1330.73 515.53 C 1332.90 515.13, 1334.29 514.82, 1336.36 514.02 C 1338.43 513.22, 1339.62 512.68, 1341.07 511.52 C 1342.52 510.37, 1343.14 509.62, 1343.61 508.24 C 1344.07 506.85, 1344.00 506.07, 1343.38 504.60 C 1342.77 503.14, 1342.03 502.41, 1340.53 500.91 C 1339.02 499.40, 1337.88 498.65, 1335.88 497.08 C 1333.88 495.51, 1332.58 494.68, 1330.53 493.05 C 1328.48 491.43, 1327.30 490.52, 1325.64 488.95 C 1323.97 487.38, 1323.16 486.56, 1322.20 485.19 C 1321.25 483.82, 1320.99 483.22, 1320.88 482.10 C 1320.77 480.99, 1321.07 480.46, 1321.64 479.60 C 1322.22 478.74, 1322.79 478.39, 1323.75 477.82 C 1324.70 477.25, 1325.44 477.08, 1326.42 476.73 C 1327.40 476.39, 1327.88 476.31, 1328.63 476.08 C 1329.37 475.85, 1329.82 475.88, 1330.13 475.58 C 1330.44 475.28, 1330.52 474.93, 1330.18 474.60" style="stroke: black; fill: black;"/></svg>